<svg xmlns="http://www.w3.org/2000/svg" width="625" height="121" viewBox="0 0 625 121" fill="none">
<path d="M153.882 32.2175C158.584 31.8821 163.286 31.8821 168.101 32.2175L169.108 41.7195H169.78C171.571 34.2297 178.848 31.0996 189.036 31.0996C189.484 34.9004 189.484 41.1606 189.036 44.9614C176.385 44.9614 172.915 47.5325 169.892 55.5813V90.348C165.973 90.907 157.689 90.907 153.882 90.348V32.2175Z" fill="black"/>
<path d="M248.148 66.2012C240.647 66.7602 223.406 66.872 213.778 66.313V69.1077C213.778 77.0447 218.368 78.498 227.996 78.498C234.602 78.498 239.304 77.939 245.573 76.7094C246.021 80.51 246.021 85.876 245.573 89.677C237.736 91.018 231.467 91.689 224.078 91.689C207.956 91.689 197.769 86.882 197.769 72.685V50.3272C197.769 35.4594 208.516 31.0996 223.406 31.0996C238.184 31.0996 248.148 37.3598 248.148 53.3455V66.2012ZM232.474 52.6748C232.474 45.0732 228.108 44.1789 223.182 44.1789C218.256 44.1789 213.778 45.0732 213.778 52.6748V57.0346L222.399 56.4756H232.474V52.6748Z" fill="black"/>
<path d="M301.438 76.7094C301.438 87.553 292.93 91.689 279.047 91.689C273.114 91.689 266.285 91.242 259.903 90.124C259.343 86.1 259.343 81.516 259.903 77.6037C265.949 78.61 271.994 78.945 276.696 78.945C281.175 78.945 285.429 78.61 285.429 74.809V72.685C285.429 69.4431 283.19 68.8842 279.383 67.8781L269.307 64.9716C262.926 63.1829 259.455 59.1586 259.455 51.7805V45.6321C259.455 35.2358 268.412 31.0996 282.63 31.0996C288.228 31.0996 294.049 31.5468 300.543 32.8882C301.102 36.9126 301.102 41.3842 300.543 45.2968C293.713 44.0671 289.347 43.7317 284.421 43.7317C279.607 43.7317 275.465 44.0671 275.465 47.8679V49.9919C275.465 52.7866 278.04 53.7927 281.51 54.7988L290.915 57.3699C297.856 59.2703 301.438 62.7358 301.438 71.2317V76.7094Z" fill="black"/>
<path d="M363.685 66.2012C356.184 66.7602 338.943 66.872 329.315 66.313V69.1077C329.315 77.0447 333.905 78.498 343.533 78.498C350.138 78.498 354.841 77.939 361.11 76.7094C361.558 80.51 361.558 85.876 361.11 89.677C353.273 91.018 347.004 91.689 339.615 91.689C323.493 91.689 313.305 86.882 313.305 72.685V50.3272C313.305 35.4594 324.053 31.0996 338.943 31.0996C353.721 31.0996 363.685 37.3598 363.685 53.3455V66.2012ZM348.011 52.6748C348.011 45.0732 343.645 44.1789 338.719 44.1789C333.793 44.1789 329.315 45.0732 329.315 52.6748V57.0346L337.935 56.4756H348.011V52.6748Z" fill="black"/>
<path d="M377.679 32.2175C382.381 31.8821 387.083 31.8821 391.897 32.2175L392.905 41.7195H393.577C395.368 34.2297 402.645 31.0996 412.833 31.0996C413.281 34.9004 413.281 41.1606 412.833 44.9614C400.182 44.9614 396.711 47.5325 393.689 55.5813V90.348C389.77 90.907 381.486 90.907 377.679 90.348V32.2175Z" fill="black"/>
<path d="M423.581 32.6646C427.499 32.1056 435.784 32.1056 439.59 32.6646L451.793 75.7032L463.884 32.6646C467.691 32.1056 475.639 32.1056 479.446 32.6646L461.645 90.348C456.719 90.906 446.419 90.906 441.493 90.348L423.581 32.6646Z" fill="black"/>
<path d="M541.357 73.0203C541.357 86.882 530.833 91.689 515.159 91.689C499.486 91.689 488.962 86.882 488.962 73.0203V49.9919C488.962 35.5712 499.486 31.0996 515.159 31.0996C530.833 31.0996 541.357 35.5712 541.357 49.9919V73.0203ZM525.347 53.2338C525.347 45.5203 520.645 44.626 515.159 44.626C509.562 44.626 504.972 45.5203 504.972 53.2338V69.5549C504.972 77.1565 509.562 78.051 515.159 78.051C520.645 78.051 525.347 77.1565 525.347 69.5549V53.2338Z" fill="black"/>
<path d="M572.592 23.6098C568.674 24.1687 559.829 24.1687 555.799 23.6098L555.575 10.8659C559.605 10.3069 568.898 10.3069 572.928 10.8659L572.592 23.6098ZM556.247 32.6646C560.053 32.1057 568.338 32.1057 572.256 32.6646V90.348C568.338 90.907 560.053 90.907 556.247 90.348V32.6646Z" fill="black"/>
<path d="M588.602 32.2175C593.304 31.8821 598.006 31.8821 602.82 32.2175L603.827 41.7195H604.499C606.29 34.2297 613.567 31.0996 623.755 31.0996C624.203 34.9004 624.203 41.1606 623.755 44.9614C611.104 44.9614 607.634 47.5325 604.611 55.5813V90.348C600.693 90.907 592.408 90.907 588.602 90.348V32.2175Z" fill="black"/>
<path d="M104.734 90.571L52.5076 60.5V0.30188L104.734 30.4289V90.571Z" fill="#80D8FF"/>
<path d="M0.280762 90.571L52.5075 60.5V0.30188L0.280762 30.4289V90.571Z" fill="#7ACFFF"/>
<path d="M52.5075 90.571L104.734 60.5L52.5075 30.4288L0.280762 60.5L52.5075 90.571Z" fill="url(#paint0_linear_813_3240)"/>
<path opacity="0.3" d="M52.5075 120.698L0.280762 90.571V30.4288L52.5075 60.5V120.698Z" fill="#E4F0FE"/>
<path d="M0.280762 90.571L52.5075 120.698V90.571L0.280762 60.5V90.571Z" fill="url(#paint1_linear_813_3240)"/>
<path opacity="0.3" d="M52.5076 120.698L104.734 90.571V30.4288L52.5076 60.5V120.698Z" fill="#D0E6FF"/>
<path d="M104.734 90.571L52.5076 120.698V90.571L104.734 60.5V90.571Z" fill="url(#paint2_linear_813_3240)"/>
<path opacity="0.3" d="M52.5075 60.5L104.734 30.4289L52.5075 0.30188L0.280762 30.4289L52.5075 60.5Z" fill="black"/>
<defs>
<linearGradient id="paint0_linear_813_3240" x1="2.25146" y1="71.7195" x2="104.138" y2="48.9118" gradientUnits="userSpaceOnUse">
<stop stop-color="#C132CE"/>
<stop offset="1" stop-color="#425AFA"/>
</linearGradient>
<linearGradient id="paint1_linear_813_3240" x1="20.3726" y1="70.5717" x2="35.3617" y2="120.503" gradientUnits="userSpaceOnUse">
<stop stop-color="#425AFA"/>
<stop offset="0.16" stop-color="#5A52F2"/>
<stop offset="0.55" stop-color="#9241DE"/>
<stop offset="0.84" stop-color="#B436D3"/>
<stop offset="1" stop-color="#C132CE"/>
</linearGradient>
<linearGradient id="paint2_linear_813_3240" x1="61.7494" y1="111.252" x2="94.991" y2="70.4121" gradientUnits="userSpaceOnUse">
<stop stop-color="#C132CE"/>
<stop offset="0.1" stop-color="#AB39D6"/>
<stop offset="0.28" stop-color="#8545E3"/>
<stop offset="0.47" stop-color="#684EED"/>
<stop offset="0.65" stop-color="#5355F4"/>
<stop offset="0.83" stop-color="#4659F9"/>
<stop offset="1" stop-color="#425AFA"/>
</linearGradient>
</defs>
<script xmlns="" type="application/javascript"/></svg>